<svg xmlns="http://www.w3.org/2000/svg" width="399.775" height="512.003" viewBox="0 0 399.775 512.003">
  <g id="doctor" transform="translate(-56.114)">
    <g id="Grupo_2" data-name="Grupo 2">
      <g id="Grupo_1" data-name="Grupo 1">
        <path id="Trazado_1" data-name="Trazado 1" d="M207.906,160.322a7.5,7.5,0,0,0-7.5,7.5v8.017a7.5,7.5,0,0,0,15,0v-8.017A7.5,7.5,0,0,0,207.906,160.322Z" fill="#4b4be0"/>
      </g>
    </g>
    <g id="Grupo_4" data-name="Grupo 4">
      <g id="Grupo_3" data-name="Grupo 3">
        <path id="Trazado_2" data-name="Trazado 2" d="M304.1,160.322a7.5,7.5,0,0,0-7.5,7.5v8.017a7.5,7.5,0,0,0,15,0v-8.017A7.5,7.5,0,0,0,304.1,160.322Z" fill="#4b4be0"/>
      </g>
    </g>
    <g id="Grupo_6" data-name="Grupo 6">
      <g id="Grupo_5" data-name="Grupo 5">
        <path id="Trazado_3" data-name="Trazado 3" d="M285.389,218.669a7.5,7.5,0,0,0-10.605-.072c-2.738,2.7-9.3,5.854-18.782,5.854s-16.043-3.154-18.781-5.854a7.5,7.5,0,1,0-10.535,10.677c6.459,6.372,17.418,10.177,29.316,10.177s22.856-3.8,29.315-10.177A7.5,7.5,0,0,0,285.389,218.669Z" fill="#4b4be0"/>
      </g>
    </g>
    <g id="Grupo_8" data-name="Grupo 8">
      <g id="Grupo_7" data-name="Grupo 7">
        <path id="Trazado_4" data-name="Trazado 4" d="M215.921,136.274H199.89a7.5,7.5,0,0,0,0,15h16.032a7.5,7.5,0,1,0,0-15Z" fill="#4b4be0"/>
      </g>
    </g>
    <g id="Grupo_10" data-name="Grupo 10">
      <g id="Grupo_9" data-name="Grupo 9">
        <path id="Trazado_5" data-name="Trazado 5" d="M312.114,136.274H296.082a7.5,7.5,0,0,0,0,15h16.032a7.5,7.5,0,0,0,0-15Z" fill="#4b4be0"/>
      </g>
    </g>
    <g id="Grupo_12" data-name="Grupo 12">
      <g id="Grupo_11" data-name="Grupo 11">
        <path id="Trazado_6" data-name="Trazado 6" d="M416.63,357.239l-54.059-16.62a17.2,17.2,0,0,0-9.525-16.426l-33.432-16.715V283.64a111.875,111.875,0,0,0,47.019-76.253h4.458c14.617,0,27.155-10.861,28.543-24.728a27.5,27.5,0,0,0-15.891-27.819V71.629a55.66,55.66,0,0,0-55.6-55.6h-1.268C313.375,6.073,293.538,0,271.533,0c-46.849,0-68.372,9.76-93.292,21.061-13.313,6.037-27.078,12.279-46.59,17.985a7.5,7.5,0,0,0-4.815,10.091c.228.546,3.579,8.325,12.224,17.775-3.733,4.6-10.8,16.346-10.8,39.453v48.809c-8.63,4.115-14.929,12.266-15.89,21.857a27.541,27.541,0,0,0,27.4,30.355h5.6a111.841,111.841,0,0,0,47.022,76.264v23.827l-33.433,16.715a17.2,17.2,0,0,0-9.525,16.426l-54.059,16.62A55.316,55.316,0,0,0,56.114,410.38V504.5a7.5,7.5,0,1,0,15,0V410.381a40.392,40.392,0,0,1,28.667-38.8l56.231-17.288,9.925,13.234L154.661,378.8a23.5,23.5,0,0,0-4.409,27.164l21.47,42.939H151.277v-8.532a7.5,7.5,0,0,0-15,0V448.9H103.7a7.5,7.5,0,0,0-7.5,7.5v48.1a7.5,7.5,0,0,0,7.5,7.5h80.162a7.5,7.5,0,0,0,7.5-7.5V488.174l9.84,19.681a7.5,7.5,0,0,0,13.416-6.71L163.669,399.254a8.522,8.522,0,0,1,1.6-9.849l15.877-15.878a7.5,7.5,0,0,0,.7-9.8L164.85,341.069a2.317,2.317,0,0,1,.817-3.461l29.54-14.77,20.854,71.5a7.5,7.5,0,1,0,14.4-4.2l-3.287-11.27a87.756,87.756,0,0,0,57.658,0L256,477.713l-16.186-55.494a7.5,7.5,0,1,0-14.4,4.2L248.8,506.6a7.5,7.5,0,0,0,14.4,0l53.6-183.76,29.539,14.77a2.316,2.316,0,0,1,.818,3.461l-16.992,22.655a7.5,7.5,0,0,0,.7,9.8l15.878,15.878a8.52,8.52,0,0,1,1.6,9.848L297.39,501.146a7.5,7.5,0,1,0,13.417,6.71l50.945-101.891a23.5,23.5,0,0,0-4.407-27.164l-11.278-11.278,9.924-13.233,56.232,17.289a40.39,40.39,0,0,1,28.666,38.8V504.5a7.5,7.5,0,0,0,15,0V410.381A55.316,55.316,0,0,0,416.63,357.239ZM176.356,497H111.194V463.9h25.081v.516a7.5,7.5,0,0,0,15,0V463.9h25.081V497Zm8.079-462.278C208.734,23.7,227.926,15,271.533,15c27.67,0,52.4,11.58,57.515,26.937a7.5,7.5,0,0,0,14.23-4.744,35.365,35.365,0,0,0-1.529-3.809,40.662,40.662,0,0,1,26.995,38.245v80.678h-8.532a8.541,8.541,0,0,1-8.532-8.532v-8.017c0-34.771-25.174-60.344-26.246-61.416a7.51,7.51,0,0,0-7.562-1.849c-41.634,13.148-100.337,24.229-143.555,2.362-15.379-7.782-24.46-17.671-29.236-24.274A368.873,368.873,0,0,0,184.435,34.722Zm120.18,276.32-14.324,49.112a72.763,72.763,0,0,1-68.575.008l-14.327-49.12V292.435a111.545,111.545,0,0,0,97.226-.007ZM256,288.581a96.819,96.819,0,0,1-96.709-96.71,7.5,7.5,0,0,0-15,0v.516h-4.524a12.544,12.544,0,0,1-12.473-13.86c.631-6.292,6.613-11.221,13.619-11.221h10.878a23.559,23.559,0,0,0,23.532-23.532V115.466a7.5,7.5,0,0,0-15,0v28.308a8.542,8.542,0,0,1-8.532,8.532h-8.532V106.365c0-17.451,4.69-26.129,6.856-29.206a103.091,103.091,0,0,0,16.246,10.472c17,8.859,37.227,13.765,60.127,14.581,26.841.965,57.519-3.743,91.24-13.973,5.952,7.208,18.951,25.475,18.951,47.518v8.017a23.559,23.559,0,0,0,23.532,23.532h12.024a12.543,12.543,0,0,1,12.473,13.859c-.63,6.293-6.611,11.222-13.617,11.222h-3.384v-.438a7.5,7.5,0,0,0-7.5-7.5h0a7.5,7.5,0,0,0-7.5,7.494A96.835,96.835,0,0,1,256,288.581Z" fill="#4b4be0"/>
      </g>
    </g>
    <g id="Grupo_14" data-name="Grupo 14">
      <g id="Grupo_13" data-name="Grupo 13">
        <path id="Trazado_7" data-name="Trazado 7" d="M408.309,452.911h-12.54v-12.54a7.5,7.5,0,0,0-15,0v12.54H368.228a7.5,7.5,0,1,0,0,15h12.541v12.54a7.5,7.5,0,0,0,15,0v-12.54h12.54a7.5,7.5,0,0,0,0-15Z" fill="#4b4be0"/>
      </g>
    </g>
  </g>
</svg>
