<svg xmlns="http://www.w3.org/2000/svg" width="21.213" height="25.916" viewBox="0 0 21.213 25.916">
  <g id="man" transform="translate(-2.352 0)">
    <g id="Grupo_15" data-name="Grupo 15">
      <path id="Trazado_9" data-name="Trazado 9" d="M7.938,8.13a1.727,1.727,0,0,0,.389.849c.383,2.666,2.776,4.938,4.7,4.843,2.445-.12,4.178-2.755,4.567-4.843A2.13,2.13,0,0,0,18,8.041a2.185,2.185,0,0,0-.072-1.583c-.017-.02-.127-.121-.146-.138.275-.992.879-2.762-.625-4.353A7,7,0,0,0,14.188.33,4.591,4.591,0,0,0,8.052,3.089,4.807,4.807,0,0,0,8.078,6.32a.57.57,0,0,0-.144.138C7.645,6.839,7.833,7.651,7.938,8.13Z" fill="#4b4be0"/>
      <path id="Trazado_10" data-name="Trazado 10" d="M23.557,22.792c-.084-1.835-.188-4.743-1.791-7.122a3.553,3.553,0,0,0-1.541-1.037,15.678,15.678,0,0,1-3.438-1.492l-.5.339.055,3.218-2.972,7.934a.444.444,0,0,1-.832,0L9.572,16.7s.055-3.208.054-3.218c.007.027-.5-.339-.5-.339a15.637,15.637,0,0,1-3.437,1.492A3.553,3.553,0,0,0,4.152,15.67c-1.6,2.379-1.708,5.287-1.792,7.122-.058,1.268.208,1.741.542,1.876,4.146,1.664,15.965,1.664,20.112,0C23.35,24.534,23.614,24.06,23.557,22.792Z" fill="#4b4be0"/>
      <path id="Trazado_11" data-name="Trazado 11" d="M13.065,14.847l-.134,0a3.974,3.974,0,0,1-1.3-.232l1.178,1.8-1.057,1.02,1.088,6.607a.116.116,0,0,0,.116.1.118.118,0,0,0,.116-.1l1.088-6.607-1.058-1.02,1.161-1.776A4.978,4.978,0,0,1,13.065,14.847Z" fill="#4b4be0"/>
    </g>
  </g>
</svg>
