<svg xmlns="http://www.w3.org/2000/svg" width="400" height="537.599" viewBox="0 0 400 537.599">
  <g id="women" transform="translate(-68.8)">
    <g id="Grupo_16" data-name="Grupo 16">
      <path id="Trazado_12" data-name="Trazado 12" d="M173.2,314.4c21.3,3.2,47.3-1.7,75.7-3.4a66.235,66.235,0,0,0,32.7-.1c73.9,3.6,131.5,24.5,131.5-125.9C413.1,82.9,346.8,0,265,0S116.9,82.9,116.9,185c0,82.1,15.7,114,41.2,125.1A54.665,54.665,0,0,0,173.2,314.4ZM149.6,127.3c15.5,21.5,55.7,16.9,90.4-10.3a132.178,132.178,0,0,0,22.7-22.8,20.022,20.022,0,0,1,2.4.4,79.947,79.947,0,0,1,10,2.9c3.1,1.5,6.5,2.7,9.5,4.6a86.781,86.781,0,0,1,8.7,5.7,79.775,79.775,0,0,1,7.4,6.7,52.782,52.782,0,0,1,5.9,6.9,67.761,67.761,0,0,1,4.4,6.5,30.452,30.452,0,0,1,3,5.4c1.5,3.1,2.4,4.9,2.4,4.9s-.3-1.9-.9-5.4a49.59,49.59,0,0,0-1.3-6.2,51.823,51.823,0,0,0-2.5-8,76.817,76.817,0,0,0-4-9.1,103.04,103.04,0,0,0-5.8-9.7c-2.5-3.1-4.8-6.5-7.8-9.5a99.936,99.936,0,0,0-9.5-8.8,99.471,99.471,0,0,0-9.9-6.5,78.128,78.128,0,0,0,3.7-9.3c12.4,5.6,25.1,12.7,35.2,22.8,37.1,37.1,22.5,80.2,51.1,51.7a76.909,76.909,0,0,0,11.1-13.9,12.646,12.646,0,0,1,2.8.1,13.148,13.148,0,0,1,7.8,6.4c3.9,6.5,4.8,15.9,2.4,25.3-3.6,14-12.8,22.3-20.2,23.2l-6,.8L361,188c-14.2,51.5-52.5,106.3-95.8,106.3S183.7,239.5,169.4,188l-1.6-5.9-6-.8c-7.3-1-16.6-9.3-20.2-23.2-2.4-9.4-1.5-18.8,2.4-25.3A13.451,13.451,0,0,1,149.6,127.3Z" fill="rgba(138,69,247,0.51)"/>
      <path id="Trazado_13" data-name="Trazado 13" d="M376.3,327.9c-11.6,19.8-25.1,36.5-42.9,45.7-36.8,18.8-64.2,34.2-64.2,34.2l-.1-.1v-.3l-.3.2-.3-.2v.3l-.1.1s-27.3-15.2-64.2-34.2c-17.8-9.2-31.2-25.9-42.9-45.7-54.5,22.2-92.5,73-92.5,117.5v92.2h400V445.4C468.8,401,430.7,350.1,376.3,327.9Z" fill="rgba(138,69,247,0.51)"/>
    </g>
  </g>
</svg>
