<svg xmlns="http://www.w3.org/2000/svg" width="386.639" height="512" viewBox="0 0 386.639 512">
  <g id="medico" transform="translate(-62.681 0)">
    <path id="Trazado_8" data-name="Trazado 8" d="M256,452a7.5,7.5,0,1,0,7.5,7.5A7.5,7.5,0,0,0,256,452Zm0-45a7.5,7.5,0,1,0,7.5,7.5A7.5,7.5,0,0,0,256,407Zm0,90a7.5,7.5,0,1,0,7.5,7.5A7.5,7.5,0,0,0,256,497ZM403.342,343.132,369.958,331.9a71.494,71.494,0,0,0,30.022-58.007c.048-.1,0-129.91,0-129.91A144.02,144.02,0,0,0,185.52,18.4a7.5,7.5,0,0,0,7.352,13.074A129,129,0,0,1,384.98,143.98v.034a29.578,29.578,0,0,0-14.768-3.938H363A273.68,273.68,0,0,1,304.5,123.158a273.765,273.765,0,0,1-41.233-21.4,13.08,13.08,0,0,0-14.875.669,185.927,185.927,0,0,1-32.762,20.04,186.854,186.854,0,0,1-66.275,17.6h-7.566a29.578,29.578,0,0,0-14.768,3.938v-.034a128.029,128.029,0,0,1,38.622-92.039,7.5,7.5,0,1,0-10.509-10.7A142.917,142.917,0,0,0,112.021,143.98V273.89A71.492,71.492,0,0,0,142.043,331.9l-33.385,11.235A67.454,67.454,0,0,0,62.681,407.11V504.5a7.5,7.5,0,1,0,15,0V407.11a52.465,52.465,0,0,1,35.762-49.761l13.034-4.386a87.584,87.584,0,0,0,1.341,46.737A35.427,35.427,0,0,0,102.6,433.577V464.1a13.708,13.708,0,0,0,13.693,13.693h8.4a7.5,7.5,0,0,0,0-15h-7.1V433.576a20.391,20.391,0,0,1,20.355-20.368h.035a20.392,20.392,0,0,1,20.348,20.368v29.217h-7.1a7.5,7.5,0,1,0,0,15h8.4A13.709,13.709,0,0,0,173.338,464.1V433.577A35.422,35.422,0,0,0,143.251,398.6a73.072,73.072,0,0,1-4.268-22.009,74.164,74.164,0,0,1,5.044-29.538l51.161-17.217,53.681,53.68a11.6,11.6,0,0,0,16.264,0l14.815-14.815A7.5,7.5,0,0,0,269.342,358.1L257,370.438,209.459,322.9C216.508,316.769,219.72,307.428,219,298a112.136,112.136,0,0,0,36.6,6.25,114.094,114.094,0,0,0,37.4-6.127,28.894,28.894,0,0,0,10.648,25.664l-9.609,9.609a7.5,7.5,0,1,0,10.606,10.606l13.663-13.663,45.673,15.37a73.266,73.266,0,0,1,.437,52.844,39.778,39.778,0,1,0,15.52,1.019,88.006,88.006,0,0,0,1.628-47.946l16.992,5.718a52.466,52.466,0,0,1,35.762,49.762V504.5a7.5,7.5,0,0,0,15,0v-97.39A67.454,67.454,0,0,0,403.342,343.132ZM369.827,155.076h.385a14.787,14.787,0,0,1,14.768,14.713v.115a14.812,14.812,0,0,1-15.153,14.713ZM127.02,169.79a14.81,14.81,0,0,1,15.153-14.713v29.542a14.8,14.8,0,0,1-15.153-14.713ZM204,302.07a12.473,12.473,0,0,1-8.512,11.842l-34.409,11.58a56.387,56.387,0,0,1-34.058-51.6V195.682a29.648,29.648,0,0,0,15.62,3.938A115.332,115.332,0,0,0,204,291.519Zm51.65-12.817c-54.3-.188-98.477-45.039-98.477-99.98V154.411a201.369,201.369,0,0,0,64.914-18.4,200.833,200.833,0,0,0,34.328-20.838,288.844,288.844,0,0,0,42.335,21.84,288.616,288.616,0,0,0,56.076,16.829v36.586a98.165,98.165,0,0,1-29.067,70C306.7,279.427,282.884,289.348,255.65,289.253Zm95.272,36.238L316.5,313.909A12.469,12.469,0,0,1,308,302.07V291.737a114.1,114.1,0,0,0,28.348-20.683,112.951,112.951,0,0,0,33.11-71.436,30.36,30.36,0,0,0,15.523-3.938v78.209a56.389,56.389,0,0,1-34.059,51.6ZM394.4,438a24.792,24.792,0,1,1-24.821-24.792h.045A24.819,24.819,0,0,1,394.4,438ZM304.5,161.194a7.5,7.5,0,0,0-7.5,7.5v17.157a7.5,7.5,0,0,0,15,0V168.694A7.5,7.5,0,0,0,304.5,161.194Zm-37.848,71.258a18.3,18.3,0,0,1-21.305-.006,7.5,7.5,0,1,0-8.672,12.24,33.779,33.779,0,0,0,19.334,6.184,35.754,35.754,0,0,0,19.329-6.189,7.5,7.5,0,0,0-8.686-12.229ZM207.5,161.194a7.5,7.5,0,0,0-7.5,7.5v17.157a7.5,7.5,0,0,0,15,0V168.694A7.5,7.5,0,0,0,207.5,161.194Z" fill="rgba(138,69,247,0.51)"/>
  </g>
</svg>
